/* XPM */
static char *e5788fe252684122d63ec220758d752aTTGOWvdKoRy9ZOcG[] = {
/* columns rows colors chars-per-pixel */
"75 75 211 2 ",
"   c None",
".  c #2D1A14",
"X  c #281E18",
"o  c #361C16",
"O  c #3A1E16",
"+  c #351E18",
"@  c #391E18",
"#  c #3D2117",
"$  c #34221C",
"%  c #3B211A",
"&  c #2E201B",
"*  c #182C24",
"=  c #16342D",
"-  c #18362D",
";  c #1B3C2E",
":  c #193730",
">  c #1A3D35",
",  c #1A3F39",
"<  c #173D36",
"1  c #2D2621",
"2  c #252D27",
"3  c #292A25",
"4  c #262E29",
"5  c #3C2B23",
"6  c #3E2720",
"7  c #22332D",
"8  c #213F37",
"9  c #422216",
"0  c #432519",
"q  c #46291D",
"w  c #4B2B1C",
"e  c #52311F",
"r  c #502F1E",
"t  c #412B24",
"y  c #4B2F24",
"u  c #4D3223",
"i  c #46342C",
"p  c #4C362E",
"a  c #533322",
"s  c #593722",
"d  c #5C3A24",
"f  c #5B3D2C",
"g  c #53392D",
"h  c #4C3831",
"j  c #533C33",
"k  c #5B3F30",
"l  c #613E25",
"z  c #613F29",
"x  c #1D4335",
"c  c #1C4139",
"v  c #1F4833",
"b  c #22462C",
"n  c #2E5D2F",
"m  c #29532F",
"M  c #214635",
"N  c #234B35",
"B  c #22453B",
"V  c #244A3A",
"C  c #2A493B",
"Z  c #275133",
"A  c #2A5534",
"S  c #2D5B33",
"D  c #2C543A",
"F  c #315F33",
"G  c #34553E",
"H  c #335B3B",
"J  c #33642F",
"K  c #376C2F",
"L  c #336432",
"P  c #376932",
"I  c #396C33",
"U  c #3B633D",
"Y  c #3C6D38",
"T  c #366437",
"R  c #3D7333",
"E  c #3F7931",
"W  c #3E7238",
"Q  c #3D762F",
"!  c #5B443A",
"~  c #644127",
"^  c #66452B",
"/  c #69462A",
"(  c #6D4A2E",
")  c #714D2E",
"_  c #74502F",
"`  c #654B35",
"'  c #6B4C33",
"]  c #644630",
"[  c #6D523A",
"{  c #6D5137",
"}  c #745233",
"|  c #74573C",
" . c #714E30",
".. c #426C3C",
"X. c #406539",
"o. c #417635",
"O. c #437D32",
"+. c #4A753D",
"@. c #467B39",
"#. c #497B39",
"$. c #2C4942",
"%. c #314E44",
"&. c #345645",
"*. c #395953",
"=. c #3F6343",
"-. c #5D4C46",
";. c #454842",
":. c #755940",
">. c #69574D",
",. c #466B44",
"<. c #416448",
"1. c #4B6E49",
"2. c #426547",
"3. c #4E7546",
"4. c #527C43",
"5. c #52724E",
"6. c #557A4A",
"7. c #597B4F",
"8. c #5B7B54",
"9. c #7A6556",
"0. c #786149",
"q. c #536B66",
"w. c #8A7668",
"e. c #847873",
"r. c #458032",
"t. c #4B8335",
"y. c #4D8339",
"u. c #518637",
"i. c #52863A",
"p. c #55893A",
"a. c #5A8D3E",
"s. c #618F3F",
"d. c #5D8D42",
"f. c #5A8647",
"g. c #5E9041",
"h. c #5F8154",
"j. c #628D44",
"k. c #62894A",
"l. c #639243",
"z. c #6A9546",
"x. c #66934A",
"c. c #6C964B",
"v. c #6E9949",
"b. c #739B4C",
"n. c #799E4F",
"m. c #71974F",
"M. c #658458",
"N. c #678754",
"B. c #6E9555",
"V. c #759E52",
"C. c #7A9E51",
"Z. c #75975A",
"A. c #77A054",
"S. c #7CA254",
"D. c #7EA15B",
"F. c #759461",
"G. c #7B9A63",
"H. c #6C8568",
"J. c #7FA066",
"K. c #819F57",
"L. c #83A457",
"P. c #84A659",
"I. c #85A95B",
"U. c #8AAB5D",
"Y. c #89A75D",
"T. c #819E66",
"R. c #829F68",
"E. c #8DAD61",
"W. c #89A569",
"Q. c #87A666",
"!. c #93AE67",
"~. c #9BAF6C",
"^. c #94B165",
"/. c #96B46A",
"(. c #9AB56A",
"). c #9CB56C",
"_. c #9DB96C",
"`. c #98B267",
"'. c #9CB472",
"]. c #98B276",
"[. c #99AF78",
"{. c #A1B66E",
"}. c #A1B96E",
"|. c #A6BA76",
" X c #A3BA71",
".X c #A6B779",
"XX c #A7B979",
"oX c #A9BB7A",
"OX c #A9BB7C",
"+X c #A3B575",
"@X c #A9C07A",
"#X c #758A86",
"$X c #9B8F89",
"%X c #A1948E",
"&X c #A59282",
"*X c #A29691",
"=X c #ACBE82",
"-X c #9AAAA7",
";X c #ACA9A5",
":X c #BCB3AD",
">X c #A8B6B3",
",X c #B1BAB7",
"<X c #B5C58C",
"1X c #C3CEA3",
"2X c #C8CBC8",
"3X c #DFDBD6",
"4X c #E3E1DB",
"5X c #E9E7E3",
"6X c #FDFEFD",
"7X c #F7F8F6",
"8X c #F2F0ED",
/* pixels */
"                                                                                                                                                      ",
"                                                                                                                                                      ",
"                                                                                                                                                      ",
"                                                                                                                                                      ",
"                                                                                                                                                      ",
"                                                                                                                                                      ",
"                                                                                                                                                      ",
"                                                                                                                                                      ",
"                                                                .XoXoXoXoXoXoXoXoX.X                                                                  ",
"                                                              OX|. X X XU.I.I.C.E.|.=X                                                                ",
"                                  !.(.(.(.). X(.(.(.(.). X).`.`.(.(.(./.b.z.g.t.b.). X).).                                                            ",
"                              ).{.L.b.b.v.S._.S.b.v.v.I._.b.a.p.v.b.b.v.z.a.O.g.z.n._.L.b.C.).@XoXoX|.|.|.|.|.|.                                      ",
"                        ~.).Y.L.P.z.p.z.a.l.S.a.a.z.p.d.x.p.p.a.i.i.i.i.i.p.a.z.a.p.z.a.p.z.S.L.P.).`.L.L.^. X XOX=XOXOX.X+X                          ",
"                        _.`.S.z.l.p.u.a.r.t.a.u.p.d.r.O.O.t.a.a.O.O.O.O.r.p.l.l.i.O.r.r.t.g.z.l.l.L.S.z.g.S.`.`.).}.`.`.(.|.<X                        ",
"                    ~.{._.b.z.l.t.a.g.r.r.O.r.g.a.r.O.O.r.l.i.O.O.O.O.O.g.a.O.r.O.r.l.i.O.r.g.a.t.O.p.z.t.p.z.z.U.`.b.z.S._.|. XXX                    ",
"                    ).^.C.p.a.l.r.r.r.r.p.p.r.t.r.O.P R O.R F A J y.p.O.r.t.O.O.O.r.t.r.O.O.r.p.d.r.r.u.a.p.t.t.p.l.z.p.a.S.S.U.|.=X                  ",
"                      K.l.p.p.a.r.O.O.O.p.i.R I P T A S T Z v V 4.m.C.l.l.l.l.p.u.t.O.O.r.r.O.t.a.t.r.O.a.i.O.O.O.r.a.r.r.a.a.b.^. X<X                ",
"                        z.z.p.O.O.O.O.o.O.I S M c c V V V V M =./.}.}. X).)./.v.z.z.t.O.O.O.O.o.O.O.O.O.O.O.r.r.r.r.O.O.O.O.O.i.v.!.'.[.              ",
"                                  n S N N N x c > V F.W.W.W.W.!.}.L.P._.x.l.b.u.b.(.^.l.Q L Z M M S L J O.O.O.r.r.O.J J L L L L P ..U G               ",
"                                  N.6.U F F U H S L m.P.U.U.(.}.U.z.l.C.d.p.p.O.d.D.U.S.z.f.7.5.5.D N Z F P I R R L Z N N N N N N N C                 ",
"                        `.}.).`.^.(.^.b.i.y.f.@.R O.O.i.l.l.L.U.z.t.O.O.g.a.O.O.O.t.l.I.).).).).'.=.M N c N A A A Z x c c c c c x ;                   ",
"              ~.).{.{.U.b.).E.v.p.l.C./.l.I N M Z F F R r.t.t.y.r.O.O.O.O.r.O.O.O.O.r.l.b.b.b.P._.c.i.R M c x x x x , c > > > B                       ",
"          ~.).{.(.P.P.I.I.V.l.y.I #.f.f.@.L Z N N N N S I I J S S f.S.A.A.v.p.r.r.E S T ..p.p.l.D.+.H F h.M.M.M.6.U x 5.M.M.3.=.M b X.                ",
"        '. X`.`.I.l.s.n.^.i.E R L L P A A A A A D G x N A A H G G Z.(.(.(.L.g.t.O.R m x M I I @.f.U &.=.Q.(.(.(.I.k.m B./.^.S.4.Z n #.m.              ",
"      '. X/.b.v.l.O.O.p.z.y.I S S N x x x x x c 1.W.D x x x M.]./.S.z.v.v.a.O.O.O.O.O.A c x x x N G.).!.b.v.v.z.U.Q.O.r.t.i.E.I.d.O.p.b.).L.B.        ",
"    H ,.3.4.i.@.Y P J I Y S N v v c , , < &.F.F.Z.S.F.N.,.M &.1.4.+.@.i.i.@.K O.O.O.P S Z Z x > v N.P.S.p.y.y.o.3.3.I P R r.b.v.t.r.t.p.l.z.x.,.      ",
"    N > N A P S Z Z Z Z N x D =.<.<.<.<.<.7.^.`.S.l.P.A.f.S x c N S J R R P n R R T A Z Z Z x c N 4.d.i.o.R I A Z Z A L R r.a.p.O.O.O.R O.i.#.S       ",
"      > > > x c B M M N M x 8.).).).)./.'.E.z.z.a.O.O.O.O.O.S x v Z S S S S S S N x B B B M B N S R I n S S A v x v N Y @.O.O.O.O.O.I J R L n S       ",
"                H.R.Q.Z.f.Z.D.C.n.l.f.+.p.p.t.t.t.r.r.O.O.O.L S I A x x x x x v x C F.R.R.R.R.h.N M M x x x x Z A S Y O.O.P T L L L L S L Z x x       ",
"                  E.E.S.g.A.x.i.a.o.S Z L R O.P L L L R O.R I I O.S N A x , c ,.,...V.Y.^.}. XW.5.5.5.5.5.5.1.Z N A I R I P F S S Z A S Z x B B       ",
"                  j.l.a.O.O.I J o.S x x Z L R Z v M M L R J R O.O.P P o.N > V J.D.d.O.p.b./././.).).).)././.Q.S M N A S L R L S A x N A x B B         ",
"            S m S L L I O.L S S L S A A N x M Z L R R I L R O.O.J R R L M , x U I I O.r.t.i.i.a.b.b.l.i.i.i.i.f.#.T v x N L S Z v , x x , %.          ",
"          =.D A A N N S I F S S N N N N x , c N S I I I I I K P S L L N c c c N N Z L P I I I I ....Y I O.O.r.p.t.E L N x N N v c $.8                 ",
"        b Z x N Z x c M A A A Z x , , c c c c , N A A L R F n S A A N c , c c c c x A A A A A N > > N S R O.O.O.O.O.o.A x x x x V                     ",
"          M x > > > > c x x x x c c c c c c c c c x x N S S S A x c c c c c , , , , x x c x x x , , c v S F L O.I F F S S S S S D M                   ",
"                    : , , , , , , c , c , , , , c c c x N N N N c c c c > > > 4 3 3 3 > , , #X>X-X*.< c N N Z T L A N A S S Z N N x B                 ",
"                    * - - - : - > , , > : - 8 $.> > c > 7 7 > , c c c c %.$.7 $ O O @ 3 C q.2X6X7X#X*., , , c Z Z Z N Z A Z x c c c c >               ",
"                                - > > >           > > 2 % $ 7 > B B c >     $ % O O O o -.4X7X6X6X7X-X> , , , c c x D N x c c c c c > -               ",
"                XX.X+X).).).                          X o O & ;.,X,X          g q # a 0 t >.2X6X6X6X;X1 1 1 2 > , c x c , , , B                       ",
"              oX}.}.`.U.L.U.L.                          0 O o -.8X6X          [ a q w w 0 + :X5X:X:Xe.O @ t 5 7 > - = = = = =                         ",
"          1XOX X_._.b.a.t.l.z.j.O.R I ;                 u 0 O ! 3X5X5X    7X5Xw.' d 9 a a # ;X:Xf d u % + i                                           ",
"          =X XP.b.b.p.i.l.t.r.@.Z N N > > *               ^ d d ! ! e.7X6X6X7X4X&X( s d a # h ! d q t                                                 ",
"        =X).U.b.l.p.r.t.p.o.L S x N S N N ;                 ` s q O j $X%X%X%X*X9.d ^ ~ a O 0 w y 6                                                   ",
"        [.Q.j.j.a.O.O.O.R L Z x N T W S A b                 ! d s q # # O O # # # q ) / a 0 a a %                                                     ",
"        G D L L L L F F n n S S R P F S N c -       ^ ( ' } ^ a 9 a s s 0 0 d s ~ ) } / z ( ~ e %                                                     ",
"          %.V N N N N N M N N Z T L A N x > 2 X % a ^ z a a w w w z ( / f d s a f d ) ( / / z a %                                                     ",
"            : - - - - - > c c c Z A N - = * X . # u u % . + % 0 f ^ ^ ( ' [ f j i q ( _ ) z d a %                                                     ",
"                        > > > > > > -                             t % g y p j       ] ( _ ) ~ e %                                                     ",
"                                                                                    | } } } ~ e %                                                     ",
"                                                                                    ` } } ( ~ e %                                                     ",
"                                                                                      [ ) d d a %                                                     ",
"                                                                                      { ) d d a %                                                     ",
"                                                                                      [ ) d d a O                                                     ",
"                                                                                      [  .z d a O                                                     ",
"                                                                                      [ } ) ~ a o                                                     ",
"                                                                                      { } } ~ a o                                                     ",
"                                                                                      } _ ) d w o                                                     ",
"                                                                                    ' } ( d q O o                                                     ",
"                                                                                    ' z e d 0 O +                                                     ",
"                                                                                    } e 9 s 0 % $                                                     ",
"                                                                                    | e 0 s 0 i                                                       ",
"                                                                                  :.} e 9 d 0 i                                                       ",
"                                                                                | ( z a q w 9 i                                                       ",
"                                                                              | ^ a 9 e a O O i                                                       ",
"                                                            0.' 6           | ^ r 0 a d a O O p   . 5                                                 ",
"                                                            9.`           ` ^ e 0 # d a w w # t 5   i                                                 ",
"                                                          k >.    p # 9 a s a # O 0 a 0 9 s 0 O %   h %                                               ",
"                                                        f 0 6 t t u a s 0 O % O q a # O O @ O o @ % % @ %                                             ",
"                                                                                                                                                      ",
"                                                                                                                                                      ",
"                                                                                                                                                      ",
"                                                                                                                                                      ",
"                                                                                                                                                      ",
"                                                                                                                                                      ",
"                                                                                                                                                      "
};
